<svg xmlns="http://www.w3.org/2000/svg"  viewBox="0 0 64 64" width="150px" height="150px"><radialGradient id="8Zhcag8xNZjZTVSPoixbLa" cx="32" cy="31.5" r="31.259" gradientUnits="userSpaceOnUse"><stop offset="0" stop-color="#efdcb1"/><stop offset="0" stop-color="#f2e0bb"/><stop offset=".011" stop-color="#f2e0bc"/><stop offset=".362" stop-color="#f9edd2"/><stop offset=".699" stop-color="#fef4df"/><stop offset="1" stop-color="#fff7e4"/></radialGradient><path fill="url(#8Zhcag8xNZjZTVSPoixbLa)" d="M60,50l0.385,0c1.67,0,3.195-1.122,3.537-2.757C64.392,44.998,62.668,43,60.5,43l-7.358,0	c-1.308,0-2.499-0.941-2.629-2.243C50.363,39.261,51.534,38,53,38l4.869,0c1.451,0,2.789-0.972,3.071-2.395	C61.319,33.693,59.848,32,58,32h-8v-8h11c1.657,0,3-1.343,3-3v0c0-1.657-1.343-3-3-3h-0.894c-0.996,0-1.919-0.681-2.078-1.665	C57.824,15.082,58.785,14,60,14l0.357,0c1.308,0,2.5-0.942,2.63-2.243C63.136,10.26,61.966,9,60.5,9h-16C43.672,9,43,8.328,43,7.5	S43.672,6,44.5,6l3.857,0c1.308,0,2.5-0.942,2.63-2.243C51.136,2.26,49.966,1,48.5,1L15.643,1c-1.308,0-2.5,0.942-2.63,2.243	C12.864,4.74,14.034,6,15.5,6l4.857,0c1.308,0,2.499,0.941,2.63,2.242C23.137,9.739,21.966,11,20.5,11L6.126,11	c-1.457,0-2.804,0.975-3.083,2.405C2.669,15.313,4.14,17,5.984,17l2.844,0c2.089,0,3.955,1.527,4.153,3.607	C13.209,22.993,11.339,25,9,25c-0.086,0-3.81,0-3.81,0c-2.086,0-3.959,1.514-4.169,3.59C0.78,30.972,2.665,33,5,33h9v11l-7.869,0	c-1.451,0-2.789,0.972-3.071,2.395C2.681,48.307,4.152,50,6,50c0.603,0,2,0,3.5,0s2,1.498,2,2c0,1.105-0.895,2-2,2l-5.31,0	c-2.086,0-3.959,1.514-4.169,3.59C-0.22,59.972,1.665,62,4,62l55.811,0c1.899,0,3.857-1.507,4.142-3.385	c0.369-2.435-1.498-4.555-3.852-4.614c-0.808-0.02-1.606-0.396-1.921-1.14C57.564,51.401,58.618,50,60,50z"/><linearGradient id="8Zhcag8xNZjZTVSPoixbLb" x1="32" x2="32" y1="55.808" y2="-14.775" gradientUnits="userSpaceOnUse"><stop offset="0" stop-color="#864cbf"/><stop offset=".634" stop-color="#9f5ce1"/><stop offset="1" stop-color="#aa63f0"/></linearGradient><path fill="url(#8Zhcag8xNZjZTVSPoixbLb)" d="M18,8h28c5.523,0,10,4.477,10,10v28c0,5.523-4.477,10-10,10H18c-5.523,0-10-4.477-10-10V18	C8,12.477,12.477,8,18,8z"/><linearGradient id="8Zhcag8xNZjZTVSPoixbLc" x1="44.5" x2="44.5" y1="1094.371" y2="1192.341" gradientTransform="translate(0 -1134)" gradientUnits="userSpaceOnUse"><stop offset="0" stop-color="#aa63f0"/><stop offset=".314" stop-color="#9f5ce1"/><stop offset=".91" stop-color="#844bbb"/><stop offset="1" stop-color="#7f48b5"/></linearGradient><path fill="url(#8Zhcag8xNZjZTVSPoixbLc)" d="M56,42v4c0,5.523-4.477,10-10,10H35.121c-0.998,0-1.929-0.676-2.093-1.66	C32.82,53.091,33.788,52,35,52h7.5c1.381,0,2.5-1.119,2.5-2.5v0c0-1.381-1.119-2.5-2.5-2.5l-0.855,0	c-1.308,0-2.501-0.94-2.632-2.241C38.862,43.263,40.035,42,41.5,42H56z"/><linearGradient id="8Zhcag8xNZjZTVSPoixbLd" x1="14.5" x2="14.5" y1="1145.962" y2="1202.22" gradientTransform="translate(0 -1134)" gradientUnits="userSpaceOnUse"><stop offset="0" stop-color="#a563e6"/><stop offset=".442" stop-color="#995ad7"/><stop offset="1" stop-color="#864cbf"/></linearGradient><path fill="url(#8Zhcag8xNZjZTVSPoixbLd)" d="M21,9.5c0,0.83-0.67,1.5-1.5,1.5H15c-0.55,0-1.05,0.22-1.41,0.59	c-0.409,0.398-0.635,0.968-0.582,1.587C13.097,14.23,14.055,15,15.112,15l0.388,0c1.466,0,2.634,1.254,2.491,2.749	C17.866,19.054,16.671,20,15.36,20L8,20v-2c0-5.523,4.477-10,10-10h1.5C20.33,8,21,8.67,21,9.5z"/><path fill="#fff" d="M24.5,34l3.602,13.628C28.16,47.847,28.358,48,28.585,48h4.472c0.326,0,0.565-0.307,0.485-0.623	L29,29.5l6.878-7.991c0.224-0.259,0.127-0.66-0.189-0.79l-4.117-1.682c-0.184-0.075-0.395-0.034-0.538,0.105L21,29V17.5	c0-0.325-0.306-0.564-0.621-0.485l-5,1.25C15.156,18.321,15,18.521,15,18.75v27.835c0,0.26,0.199,0.477,0.458,0.498l5,0.417	C20.75,47.524,21,47.294,21,47.002V37.5L24.5,34z"/><path fill="#fff" d="M39.598,15.01l9.005,1.926c0.261,0.052,0.436,0.3,0.397,0.564l-3.821,26.316	c-0.036,0.238-0.376,0.248-0.426,0.012l-5.742-28.227C38.938,15.251,39.247,14.94,39.598,15.01z"/><path fill="#fff" d="M41.625,49.071l1.221-2.768C42.927,46.119,43.11,46,43.311,46h2.861c0.22,0,0.415,0.141,0.483,0.35	l0.963,2.938c0.073,0.224-0.016,0.469-0.217,0.592l-2.514,1.544c-0.17,0.105-0.386,0.1-0.552-0.012l-2.531-1.715	C41.601,49.56,41.525,49.296,41.625,49.071z"/></svg>