<svg xmlns="http://www.w3.org/2000/svg" xmlns:xlink="http://www.w3.org/1999/xlink" viewBox="0,0,256,256" width="150px" height="150px" fill-rule="nonzero"><g fill="#232225" fill-rule="nonzero" stroke="none" stroke-width="1" stroke-linecap="butt" stroke-linejoin="miter" stroke-miterlimit="10" stroke-dasharray="" stroke-dashoffset="0" font-family="none" font-weight="none" font-size="none" text-anchor="none" style="mix-blend-mode: normal"><g transform="scale(3.2,3.2)"><path d="M51.51758,5.62891c-0.81736,-0.00243 -1.74234,0.05608 -2.85156,0.15039h-0.01172l-35.83008,2.62891c-0.00391,-0.00002 -0.00781,-0.00002 -0.01172,0c-1.64987,0.1421 -2.93968,0.80462 -3.73437,1.81836c-0.79469,1.01374 -1.07812,2.28246 -1.07812,3.55664v39.04688c0,1.99269 0.76475,3.77123 2.33789,5.85938c0.00258,0.00327 0.00519,0.00653 0.00781,0.00977l8.42578,10.88867c0.00194,0.00261 0.00389,0.00522 0.00586,0.00781c0.76184,0.96442 1.59792,1.65652 2.61328,2.02539c1.01536,0.36887 2.12779,0.42055 3.50391,0.35547c0.00391,0.00002 0.00781,0.00002 0.01172,0l41.625,-2.50391c0.00391,-0.00063 0.00782,-0.00128 0.01172,-0.00195c1.90678,-0.13484 3.34271,-0.67189 4.26172,-1.71094c0.91898,-1.03902 1.19531,-2.41759 1.19531,-3.91602v-43.92773c0,-0.89041 -0.26435,-1.71682 -0.79492,-2.32812c-0.53057,-0.6113 -1.1968,-1.04925 -2.13281,-1.73242c-0.00582,-0.00397 -0.01168,-0.00787 -0.01758,-0.01172l-11.42773,-8l-0.01367,-0.00977c-1.41223,-1.02055 -2.53638,-1.68079 -3.89062,-1.98633c-0.67798,-0.15296 -1.38772,-0.21632 -2.20508,-0.21875zM51.49414,7.63086c0.71801,0.00183 1.28961,0.05529 1.78906,0.16797c0.9989,0.22537 1.82332,0.6899 3.16992,1.66406c0.00453,0.00329 0.00909,0.00655 0.01367,0.00977l11.44141,8.00977c0.93785,0.6846 1.53091,1.12308 1.78516,1.41602c0.25643,0.29544 0.30664,0.40698 0.30664,1.01758v43.92773c0,1.25457 -0.22862,2.06635 -0.69336,2.5918c-0.46474,0.52545 -1.29008,0.92686 -2.9043,1.04102l-41.61523,2.50391l0.01172,-0.00195c-1.26689,0.05992 -2.10422,-0.0129 -2.72461,-0.23828c-0.62038,-0.22538 -1.10441,-0.59718 -1.72656,-1.38477l-8.41211,-10.86914c-1.44486,-1.91786 -1.93555,-3.14094 -1.93555,-4.65625v-39.04687c0,-0.97582 0.22079,-1.77176 0.65234,-2.32226c0.43068,-0.54939 1.08992,-0.95072 2.32617,-1.05859c0.0025,-0.00022 0.00326,-0.00165 0.00586,-0.00195l35.82813,-2.62695c0.00391,-0.00063 0.00782,-0.00128 0.01172,-0.00195c1.08749,-0.09264 1.95191,-0.14245 2.66992,-0.14062zM49.60156,10.03906c-0.02348,0.00048 -0.04693,0.00178 -0.07031,0.00391l-34.36133,2.61914c-0.00913,0.00118 -0.01825,0.00248 -0.02734,0.00391c-0.09932,0.0089 -0.19675,0.03259 -0.28906,0.07031c-0.66072,0.10867 -1.24977,0.32602 -1.61133,0.89258c-0.20842,0.32659 -0.28564,0.75889 -0.21289,1.12695c0.03324,0.16819 0.1488,0.27237 0.22266,0.41211c0.03973,0.18507 0.13116,0.35507 0.26367,0.49023c0.0151,0.01614 0.03074,0.03177 0.04688,0.04688c0.03191,0.03087 0.06584,0.05958 0.10156,0.08594c0.0013,0.00065 0.0026,0.0013 0.00391,0.00195l4.80273,3.99219c0.00452,0.00395 0.00908,0.00785 0.01367,0.01172l0.00781,0.00586c0.00673,0.00571 0.01281,0.00995 0.01953,0.01563c0.02078,0.0178 0.04228,0.03474 0.06445,0.05078c1.01955,0.85204 1.92135,1.37055 2.99609,1.54492c1.07845,0.17497 2.25066,0.05652 4.04102,-0.07031c0.03256,0.00094 0.06516,0.00029 0.09766,-0.00195c0.0013,0 0.0026,0 0.00391,0l0.01758,-0.00195l35.4707,-2.22656c0.53663,-0.03485 0.94963,-0.4878 0.93492,-1.02536c-0.01471,-0.53756 -0.45188,-0.96725 -0.98961,-0.97269c-0.02345,-0.00017 -0.04691,0.00048 -0.07031,0.00195l-35.48242,2.22852h-0.00586c-0.00195,-0.00001 -0.00391,-0.00001 -0.00586,0c-1.88931,0.13198 -2.98079,0.20904 -3.69141,0.09375c-0.71062,-0.11529 -1.16788,-0.36457 -2.11328,-1.16797c-0.00259,-0.00197 -0.0052,-0.00392 -0.00781,-0.00586l-4.35156,-3.61719l34.26367,-2.60938c0.55228,-0.02265 0.98164,-0.48873 0.95898,-1.04102c-0.02265,-0.55228 -0.48873,-0.98164 -1.04102,-0.95898zM54.02734,10.88281c-0.38531,-0.04828 -0.78578,0.13383 -0.98828,0.48633c-0.28,0.48 -0.11867,1.09109 0.36133,1.37109c0.16,0.09 0.33,0.14063 0.5,0.14063c0.34,0 0.67938,-0.18 0.85938,-0.5c0.28,-0.48 0.12063,-1.09109 -0.35937,-1.37109c-0.1175,-0.07 -0.24461,-0.11086 -0.37305,-0.12695zM57.33203,13.53125c-0.2525,0.03625 -0.49211,0.16867 -0.66211,0.38867c-0.33,0.44 -0.24078,1.07039 0.19922,1.40039c0.18,0.13 0.39156,0.19922 0.60156,0.19922c0.3,0 0.59883,-0.14039 0.79883,-0.40039c0.33,-0.44 0.25078,-1.05844 -0.19922,-1.39844c-0.22,-0.165 -0.48578,-0.2257 -0.73828,-0.18945zM64.03906,21.01172c-0.02345,-0.00017 -0.0469,0.00048 -0.07031,0.00195l-40.05469,2.33398c-0.00781,-0.00009 -0.01562,-0.00009 -0.02344,0c-0.89495,0.07443 -1.73262,0.39224 -2.25,1.0625c-0.51738,0.67022 -0.64062,1.49097 -0.64062,2.39258v36.60352c0,1.15001 0.33015,2.20908 1.14844,2.85742c0.81829,0.64834 1.88162,0.7896 3.10937,0.72266c0.0013,0 0.0026,0 0.00391,0l38.25977,-2.20898c0.0027,0.00003 0.00511,0.00195 0.00781,0.00195c0.02107,0 0.04075,-0.00432 0.06055,-0.00586c0.04122,-0.00137 0.08231,-0.00528 0.12305,-0.01172c0.00599,-0.00087 0.01145,-0.00108 0.01758,-0.00195c0.00373,-0.00124 0.00792,-0.00266 0.01172,-0.00391c0.51879,-0.10249 0.86813,-0.59113 0.79725,-1.11517c-0.07087,-0.52404 -0.53746,-0.90234 -1.06483,-0.86334l-38.32422,2.21289c-0.99124,0.05405 -1.5308,-0.11351 -1.75977,-0.29492c-0.22896,-0.18141 -0.39062,-0.47307 -0.39062,-1.28906v-36.60352c0,-0.69539 0.12328,-1.04118 0.22266,-1.16992c0.09917,-0.12847 0.25101,-0.24228 0.83203,-0.29102h0.00195l40.0293,-2.33203c0.23959,-0.01554 0.46559,-0.11676 0.63672,-0.28516c0.00206,-0.00202 0.00578,-0.00187 0.00781,-0.00391c0.01016,-0.01016 0.01597,-0.02109 0.02539,-0.03125c0.01624,-0.01702 0.03188,-0.03461 0.04688,-0.05273c0.01848,-0.02203 0.03901,-0.04437 0.05664,-0.06641c0.01213,-0.02426 0.02369,-0.048 0.03711,-0.07227c0.03618,-0.06495 0.065,-0.13374 0.08594,-0.20508c0.00872,-0.02736 0.02278,-0.05467 0.02734,-0.08203c0.01,-0.07 0.01953,-0.13117 0.01953,-0.20117c0,-0.0148 -0.00906,-0.02818 -0.00977,-0.04297c-0.00441,-0.1076 -0.02618,-0.21379 -0.06445,-0.31445c-0.00484,-0.01206 -0.00836,-0.02329 -0.01367,-0.03516c-0.15534,-0.36188 -0.50859,-0.59891 -0.90234,-0.60547zM66,23.83008c-0.55,0 -1,0.45 -1,1c0,0.55 0.45,1 1,1c0.55,0 1,-0.45 1,-1c0,-0.55 -0.45,-1 -1,-1zM66,27.86914c-0.55,0 -1,0.45 -1,1c0,0.55 0.45,1 1,1c0.55,0 1,-0.45 1,-1c0,-0.55 -0.45,-1 -1,-1zM60.77734,28l-8.0293,0.57227c-1.883,0.224 -2.86719,1.14216 -2.86719,2.28516l3.43945,0.57227v17.14258l-13.18945,-19.42969l-8.94727,0.78711c-1.765,0.219 -2.38091,1.73747 -2.12891,2.85547l3.04492,0.35742v24l-1.14648,0.57227c-2.295,0.572 -1.7207,1.71416 -1.7207,2.28516l9.17578,-0.57031c2.868,-0.572 2.86914,-2.28711 2.86914,-2.28711l-4.58789,-1.14258v-18.28516l12.54102,19.39453c1.503,1.861 2.08384,2.89063 4.08984,2.89063c1.721,0 3.44189,-0.57184 4.58789,-1.71484v-27.42773l1.59961,-0.30664c1.27,-0.265 1.84353,-1.40778 1.26953,-2.55078zM66,31.91016c-0.55,0 -1,0.45 -1,1c0,0.55 0.45,1 1,1c0.55,0 1,-0.45 1,-1c0,-0.55 -0.45,-1 -1,-1zM66,35.94922c-0.55,0 -1,0.45 -1,1c0,0.55 0.45,1 1,1c0.55,0 1,-0.45 1,-1c0,-0.55 -0.45,-1 -1,-1zM66,39.99023c-0.55,0 -1,0.45 -1,1c0,0.55 0.45,1 1,1c0.55,0 1,-0.45 1,-1c0,-0.55 -0.45,-1 -1,-1zM66,44.0293c-0.55,0 -1,0.45 -1,1c0,0.55 0.45,1 1,1c0.55,0 1,-0.45 1,-1c0,-0.55 -0.45,-1 -1,-1zM66,48.07031c-0.55,0 -1,0.45 -1,1c0,0.56 0.45,1 1,1c0.55,0 1,-0.44 1,-1c0,-0.55 -0.45,-1 -1,-1zM66,52.10938c-0.55,0 -1,0.45 -1,1c0,0.55 0.45,1 1,1c0.55,0 1,-0.45 1,-1c0,-0.55 -0.45,-1 -1,-1zM66,56.15039c-0.55,0 -1,0.45 -1,1c0,0.56 0.45,1 1,1c0.55,0 1,-0.44 1,-1c0,-0.55 -0.45,-1 -1,-1zM66.0293,60.19922c-0.55,-0.03 -1.00906,0.40117 -1.03906,0.95117c-0.03,0.55 0.39922,1.01906 0.94922,1.03906h0.05078c0.53,0 0.97,-0.40922 1,-0.94922c0.02,-0.55 -0.40094,-1.02101 -0.96094,-1.04102z"></path></g></g></svg>