<svg xmlns="http://www.w3.org/2000/svg"  viewBox="0 0 48 48" width="150px" height="150px"><path fill="#71c598" d="M28.237,11.367c0.316-1.208,0.487-1.581,0.661-2.358s0.235-1.33,0.597-2.039 c0.098-0.192,0.227-0.378,0.415-0.485c0.21-0.119,0.464-0.123,0.705-0.124C33.307,6.351,36,6.342,38.693,6.333 c0.25-0.001,0.513,0.002,0.729,0.126c0.239,0.137,0.375,0.397,0.499,0.642c1.573,3.111,3.146,6.222,4.718,9.333 c0.139,0.275,0.281,0.558,0.312,0.865c0.026,0.25-0.023,0.502-0.072,0.748c-1.522,7.692-3.28,15.338-5.269,22.922 c-0.049,0.188-0.105,0.387-0.249,0.518c-0.186,0.171-0.465,0.179-0.718,0.179c-2.683-0.008-5.803-0.088-8.485-0.096 c-0.146,0-0.295-0.001-0.433-0.048c-0.249-0.084-0.427-0.301-0.586-0.51c-1.228-1.612-2.574-3.504-2.588-3.503 c-0.666,0.062-2.422,0.603-3.078,0.472c-0.251-0.05-0.825-0.891-1.693-1.867c-0.558,2.184-0.994,3.032-1.689,4.387 c-0.143,0.278-0.304,0.564-0.566,0.736c-0.324,0.213-0.739,0.212-1.126,0.203c-1.783-0.039-3.337,0.016-5.12-0.023 c-1.131-0.025-2.285,0.155-3.31-0.323c-0.698-0.325-1.524-1.469-2.035-2.045c-1.463-1.645-2.298-2.832-3.488-4.187 c-0.429-0.489-1.246-1.399-1.354-1.777c-0.172-0.605,0.11-1.426,0.26-2.037c0.661-2.696,0.621-3.011,1.353-5.46 c0.672-2.247,1.307-5.42,1.982-7.387c1.235-3.604,1.531-6.513,3.127-10.921c0.095-0.263,0.284-0.497,0.521-0.647 c0.373-0.235,1.277-0.124,2.678-0.124c2.465,0,3.728-0.079,6.334,0.014c0.427,0.015,1.577,1.967,2.418,3.098 c1.688,2.271,2.106,2.495,3.469,4.028l0.991-1.955L28.237,11.367z"/><path fill="#a37b57" d="M21.85,27.439c-0.185-0.304-4.098-0.159-5.414-0.201c0,0,1.651,3.785,3.374,6.17 s3.665,4.573,3.665,4.573l3.492-0.862C26.966,37.12,23.673,30.436,21.85,27.439z"/><path fill="#a37b57" d="M38.99,41.273c-0.046-0.834-0.777-1.433-1.345-2.045c-1.09-1.175-1.713-2.701-2.642-4.007 c-0.739-1.039-1.583-1.66-2.071-2.838c-0.794-0.078-2.023,0.065-3.784,0.131c-2.281,0.084-3.062-0.116-5.336,0.085 c0.984,1.221,1.906,3.446,2.678,4.81l3.01,4.171L38.99,41.273z"/><path fill="#a37b57" d="M19.443,40.971c-1.959-1.984-2.962-2.626-4.461-4.554c-1.151-1.479-2.014-2.466-2.95-3.291 c-0.145-0.128-0.295-0.259-0.476-0.329c-0.226-0.087-0.477-0.07-0.718-0.051c-2.418,0.191-5.162-0.383-7.569-0.089 c0,0,0.151,1.615,3.434,5.051l3.27,3.385L19.443,40.971z"/><path fill="#373837" d="M24.197,31.019c0.51-2.295,0.665-1.89,1.255-4.166c0.206-0.794,0.471-1.471,0.706-2.295 c0.139-0.486,0.637-1.613,0.647-2.119c-0.928-0.011-2.338,0.1-3.266,0.088c-0.47,1.541-1.284,3.459-1.753,5.001 c0.317,0.358,1.412,2.254,2.421,3.47"/><path fill="#373837" d="M21.941,36.386c-0.503-1.006-1.726-2.308-2.394-3.36c-1.04-1.639-1.495-2.618-3.003-4.898 c-0.113-0.171-0.318-0.527-0.38-0.722c-0.071-0.224,0.014-0.463,0.094-0.684c0.549-1.509,0.533-2.481,1.091-4.154 c-0.928,0.024-3.086,0.004-3.172,0.074c-0.115,0.094-2.138,6.769-2.546,9.949l7.96,8.509l2.288-4.602L21.941,36.386z"/><path fill="#373837" d="M24.682,16.506c-0.763,0.016-1.504,0.036-1.997,0.06c-1.038,0.051-2.252-0.037-3.283-0.169 c0.276-1.496,0.609-3.227,0.885-4.724c0.008-0.043,0.015-0.09-0.006-0.128c-0.024-0.042-0.072-0.074-0.12-0.072 c-0.538,0.016-1.01,0.013-1.497-0.018c0.28-1.415,0.587-3.213,0.68-4.653l6.094,6.937L24.682,16.506z"/><path fill="#373837" d="M39.362,41.488c0.143-0.131,0.199-0.33,0.249-0.518c1.99-7.585,3.747-15.23,5.269-22.922 c0.049-0.247,0.098-0.498,0.072-0.748c-0.032-0.307-0.173-0.59-0.312-0.865c-1.573-3.111-3.146-6.222-4.718-9.333 c-0.124-0.246-0.261-0.505-0.499-0.642L32.608,32.3C32.608,32.3,39.176,41.659,39.362,41.488z"/><path fill="#010101" d="M38.693,42.167c-0.018,0-0.034,0-0.05,0c-1.343-0.004-2.796-0.026-4.248-0.049 c-1.449-0.021-2.897-0.044-4.236-0.048c-0.156,0-0.372,0-0.59-0.072c-0.409-0.138-0.66-0.465-0.825-0.682 c-0.812-1.063-1.672-2.249-2.171-2.936c-0.096-0.132-0.178-0.245-0.243-0.334c-0.195,0.036-0.438,0.091-0.697,0.147 c-1.013,0.225-1.766,0.374-2.256,0.277c-0.337-0.066-0.597-0.383-1.166-1.075c-0.062-0.076-0.127-0.155-0.194-0.237 c-0.463,1.591-0.884,2.41-1.474,3.561c-0.171,0.332-0.378,0.696-0.741,0.936c-0.463,0.305-1.013,0.291-1.41,0.285 c-0.888-0.02-1.717-0.016-2.548-0.012c-0.838,0.005-1.678,0.009-2.573-0.012c-0.258-0.006-0.522,0-0.784,0.006 c-0.902,0.02-1.838,0.039-2.727-0.376c-0.645-0.301-1.299-1.091-1.825-1.726c-0.136-0.164-0.261-0.315-0.372-0.439 c-0.801-0.9-1.409-1.657-1.997-2.39c-0.486-0.604-0.952-1.185-1.493-1.8l-0.101-0.115c-0.796-0.905-1.248-1.47-1.358-1.855 c-0.182-0.641,0.019-1.39,0.179-1.992l0.078-0.301c0.242-0.987,0.39-1.653,0.516-2.223c0.218-0.985,0.376-1.696,0.843-3.262 c0.586-1.958,1.676-5.604,2.379-7.652c0.557-1.624,0.838-3.053,1.136-4.566c0.358-1.818,0.729-3.697,1.604-6.116 C9.479,6.74,9.737,6.42,10.071,6.21c0.401-0.252,0.979-0.24,1.934-0.216c0.301,0.007,0.638,0.015,1.011,0.015 c0.818,0,1.505-0.009,2.151-0.017c1.315-0.018,2.451-0.03,4.199,0.03c0.509,0.019,0.934,0.578,2.017,2.173 c0.271,0.399,0.542,0.799,0.786,1.128c1.151,1.548,1.692,2.119,2.378,2.842c0.308,0.324,0.641,0.675,1.063,1.151 c0.184,0.206,0.164,0.522-0.042,0.706c-0.205,0.182-0.523,0.164-0.706-0.042c-0.414-0.466-0.74-0.81-1.041-1.128 c-0.681-0.717-1.268-1.336-2.455-2.933c-0.252-0.339-0.531-0.751-0.812-1.163c-0.419-0.617-1.043-1.536-1.305-1.737 c-1.681-0.059-2.79-0.043-4.07-0.028C14.529,7,13.838,7.009,13.015,7.009c-0.381,0-0.727-0.008-1.034-0.016 c-0.578-0.014-1.232-0.03-1.377,0.062c-0.145,0.091-0.26,0.234-0.316,0.393c-0.85,2.348-1.213,4.189-1.563,5.971 c-0.305,1.548-0.593,3.01-1.172,4.697c-0.695,2.029-1.782,5.663-2.365,7.615c-0.458,1.529-0.612,2.227-0.825,3.19 c-0.128,0.575-0.276,1.248-0.521,2.245l-0.083,0.319c-0.129,0.484-0.289,1.086-0.182,1.462c0.081,0.257,0.855,1.138,1.146,1.469 l0.102,0.116c0.55,0.626,1.025,1.217,1.521,1.833c0.58,0.722,1.181,1.469,1.966,2.352c0.116,0.131,0.25,0.292,0.394,0.466 c0.438,0.528,1.038,1.252,1.479,1.457c0.678,0.315,1.457,0.298,2.282,0.282c0.276-0.006,0.551-0.013,0.827-0.006 c0.887,0.021,1.718,0.017,2.547,0.012c0.838-0.005,1.678-0.008,2.573,0.012c0.365,0.008,0.652,0.003,0.841-0.121 c0.16-0.105,0.282-0.327,0.395-0.546c0.693-1.35,1.108-2.158,1.65-4.283c0.046-0.179,0.187-0.318,0.366-0.362 c0.18-0.04,0.369,0.017,0.492,0.154c0.314,0.354,0.591,0.69,0.828,0.979c0.266,0.324,0.567,0.691,0.675,0.762 c0.226,0.03,1.148-0.17,1.758-0.305c0.44-0.097,0.821-0.181,1.089-0.206c0.297-0.02,0.294-0.02,0.876,0.781 c0.496,0.683,1.352,1.86,2.156,2.917c0.091,0.118,0.23,0.3,0.349,0.34c0.062,0.021,0.175,0.021,0.273,0.021 c1.345,0.004,2.798,0.026,4.25,0.049c1.449,0.021,2.897,0.044,4.236,0.048c0.078,0,0.326,0.002,0.379-0.048 c0.04-0.036,0.083-0.203,0.102-0.274c1.977-7.53,3.747-15.232,5.264-22.894c0.043-0.218,0.083-0.423,0.065-0.602 c-0.023-0.218-0.145-0.458-0.262-0.689l-4.719-9.333c-0.082-0.164-0.185-0.367-0.303-0.436c-0.104-0.06-0.297-0.057-0.478-0.059 L30.617,6.86c-0.16,0.001-0.359,0.001-0.46,0.059c-0.069,0.04-0.143,0.134-0.217,0.279c-0.259,0.508-0.348,0.935-0.459,1.475 l-0.095,0.445c-0.095,0.422-0.188,0.729-0.303,1.106c-0.1,0.324-0.215,0.704-0.363,1.269c-0.069,0.268-0.342,0.429-0.61,0.356 c-0.267-0.069-0.427-0.343-0.356-0.61c0.152-0.581,0.271-0.973,0.373-1.307c0.107-0.353,0.195-0.639,0.283-1.033l0.092-0.429 c0.122-0.59,0.228-1.1,0.548-1.728c0.168-0.328,0.368-0.555,0.613-0.693c0.329-0.187,0.688-0.188,0.95-0.189l8.078-0.027 c0.275,0,0.643-0.003,0.981,0.192c0.377,0.218,0.568,0.599,0.695,0.852l4.719,9.332c0.144,0.283,0.321,0.636,0.363,1.037 c0.033,0.33-0.026,0.632-0.079,0.898c-1.52,7.682-3.295,15.403-5.276,22.952c-0.054,0.208-0.136,0.525-0.395,0.761 C39.379,42.151,38.964,42.167,38.693,42.167z M19.215,6.995L19.215,6.995L19.215,6.995z"/><path fill="#010101" d="M19.443,41.471c-0.129,0-0.258-0.05-0.355-0.148c-0.688-0.697-1.258-1.227-1.771-1.705 c-0.971-0.903-1.737-1.616-2.729-2.894c-1.192-1.533-2.028-2.467-2.886-3.223c-0.116-0.102-0.227-0.198-0.324-0.236 c-0.119-0.046-0.29-0.037-0.5-0.02c-1.166,0.093-2.409,0.013-3.61-0.066c-1.327-0.085-2.702-0.173-3.938-0.024 c-0.271,0.038-0.523-0.161-0.557-0.436c-0.034-0.274,0.161-0.523,0.436-0.557c1.326-0.163,2.749-0.069,4.124,0.019 c1.165,0.076,2.371,0.153,3.467,0.068c0.25-0.021,0.597-0.049,0.937,0.082c0.266,0.102,0.466,0.278,0.627,0.419 c0.908,0.801,1.781,1.773,3.015,3.36c0.943,1.213,1.684,1.902,2.621,2.774c0.523,0.487,1.103,1.026,1.802,1.734 c0.194,0.196,0.192,0.514-0.004,0.707C19.697,41.423,19.57,41.471,19.443,41.471z"/><path fill="#010101" d="M38.99,41.773c-0.264,0-0.484-0.206-0.499-0.473c-0.028-0.513-0.462-0.957-0.92-1.428 c-0.1-0.102-0.198-0.203-0.292-0.305c-0.699-0.755-1.212-1.638-1.708-2.49c-0.307-0.528-0.624-1.073-0.975-1.567 c-0.254-0.357-0.521-0.663-0.782-0.961c-0.432-0.494-0.877-1.004-1.212-1.687c-0.446-0.012-1.026,0.021-1.728,0.062 c-0.503,0.03-1.071,0.063-1.708,0.088c-0.981,0.036-1.675,0.021-2.347,0.007c-0.675-0.016-1.284-0.028-2.088,0.014 c0.495,0.779,0.963,1.72,1.39,2.576c0.282,0.566,0.551,1.106,0.804,1.553c0.136,0.24,0.051,0.545-0.189,0.682 c-0.238,0.135-0.544,0.052-0.682-0.189c-0.26-0.46-0.537-1.016-0.828-1.6c-0.553-1.111-1.18-2.37-1.804-3.144 c-0.115-0.144-0.143-0.339-0.07-0.509s0.232-0.286,0.416-0.303c1.339-0.118,2.182-0.1,3.073-0.08 c0.659,0.015,1.339,0.029,2.288-0.007c0.629-0.023,1.189-0.057,1.686-0.086c0.903-0.054,1.619-0.094,2.166-0.043 c0.185,0.019,0.344,0.136,0.414,0.307c0.281,0.681,0.694,1.153,1.173,1.701c0.28,0.321,0.568,0.652,0.843,1.038 c0.378,0.532,0.707,1.098,1.024,1.645c0.49,0.844,0.953,1.64,1.577,2.313l0.274,0.287c0.541,0.555,1.153,1.184,1.202,2.07 c0.016,0.275-0.196,0.512-0.472,0.526C39.008,41.773,38.999,41.773,38.99,41.773z"/><path fill="#010101" d="M32.737,32.368c-0.035,0-0.07-0.004-0.104-0.011c-0.271-0.058-0.443-0.323-0.386-0.593l0.363-1.731 c0.696-3.343,1.485-7.133,2.735-10.827c1.009-2.983,1.718-5.849,2.468-8.883c0.28-1.134,0.565-2.284,0.87-3.462 c0.069-0.266,0.335-0.427,0.61-0.358c0.267,0.069,0.428,0.343,0.358,0.61c-0.305,1.173-0.589,2.319-0.868,3.45 c-0.755,3.055-1.469,5.94-2.491,8.963c-1.23,3.638-2.013,7.396-2.704,10.711l-0.363,1.734 C33.175,32.207,32.967,32.368,32.737,32.368z"/><path fill="#010101" d="M21.941,36.886c-0.183,0-0.359-0.102-0.447-0.276c-0.268-0.535-0.787-1.201-1.289-1.845 c-0.385-0.494-0.783-1.004-1.079-1.471c-0.426-0.669-0.754-1.229-1.095-1.812c-0.499-0.852-1.015-1.732-1.904-3.077 c-0.092-0.139-0.348-0.56-0.439-0.847c-0.125-0.393,0.012-0.764,0.102-1.01c0.27-0.74,0.397-1.352,0.533-1.998 c0.097-0.46,0.195-0.932,0.348-1.473c-0.167,0.002-0.344,0.003-0.522,0.004c-0.517,0.004-1.238,0.009-1.615,0.024 c-0.414,1.223-2.043,6.729-2.405,9.548c-0.035,0.275-0.289,0.467-0.56,0.433c-0.274-0.035-0.468-0.286-0.433-0.56 c0.312-2.435,2.299-9.922,2.725-10.271c0.181-0.147,0.195-0.159,2.281-0.174c0.453-0.003,0.892-0.006,1.196-0.014 c0.161-0.01,0.317,0.072,0.415,0.203c0.097,0.131,0.124,0.301,0.072,0.455c-0.263,0.786-0.396,1.418-0.523,2.028 c-0.143,0.684-0.278,1.329-0.572,2.138c-0.038,0.104-0.108,0.297-0.088,0.361c0.038,0.121,0.207,0.428,0.32,0.6 c0.905,1.367,1.428,2.26,1.934,3.123c0.335,0.573,0.657,1.124,1.075,1.783c0.271,0.425,0.653,0.916,1.023,1.391 c0.533,0.683,1.083,1.389,1.396,2.013c0.123,0.247,0.023,0.547-0.224,0.671C22.092,36.869,22.016,36.886,21.941,36.886z"/><path fill="#010101" d="M21.45,27.945c-0.911,0-2.201-0.068-3.357-0.129c-0.646-0.033-1.239-0.064-1.672-0.078 c-0.276-0.009-0.493-0.24-0.484-0.516s0.243-0.481,0.516-0.484c0.438,0.015,1.038,0.046,1.692,0.08 c1.326,0.069,2.829,0.152,3.69,0.121c0.272,0.001,0.507,0.209,0.516,0.484c0.009,0.276-0.208,0.507-0.484,0.516 C21.739,27.943,21.599,27.945,21.45,27.945z"/><path fill="#010101" d="M23.846,33.021c-0.035,0-0.072-0.004-0.108-0.012c-0.27-0.061-0.439-0.327-0.38-0.597 c0.104-0.471,0.209-0.891,0.313-1.28c-0.596-0.749-1.201-1.681-1.652-2.375c-0.264-0.406-0.513-0.79-0.608-0.899 c-0.115-0.13-0.154-0.31-0.104-0.476c0.239-0.785,0.568-1.671,0.887-2.528c0.313-0.844,0.637-1.716,0.867-2.472 c0.064-0.213,0.253-0.349,0.484-0.354c0.454,0.01,1.031-0.02,1.605-0.044c0.594-0.026,1.189-0.046,1.66-0.045 c0.134,0.002,0.261,0.057,0.354,0.152s0.144,0.225,0.141,0.358c-0.009,0.427-0.249,1.08-0.461,1.656 c-0.086,0.233-0.164,0.442-0.206,0.59c-0.106,0.372-0.219,0.716-0.329,1.053c-0.132,0.404-0.262,0.8-0.373,1.23 c-0.259,0.997-0.502,1.771-0.735,2.517c-0.3,0.955-0.583,1.856-0.866,3.134C24.283,32.863,24.076,33.021,23.846,33.021z M22.339,27.432c0.124,0.175,0.288,0.426,0.519,0.781c0.327,0.504,0.738,1.137,1.159,1.72c0.076-0.246,0.152-0.489,0.229-0.735 c0.229-0.731,0.468-1.49,0.721-2.469c0.117-0.452,0.253-0.867,0.392-1.291c0.106-0.325,0.215-0.656,0.318-1.017 c0.047-0.165,0.133-0.399,0.229-0.659c0.088-0.239,0.2-0.546,0.284-0.815c-0.316,0.008-0.656,0.022-0.996,0.037 c-0.446,0.02-0.893,0.038-1.287,0.044c-0.225,0.692-0.504,1.444-0.775,2.175C22.851,25.957,22.563,26.734,22.339,27.432z"/><path fill="#010101" d="M36.533,17.106c-0.003,0-0.006,0-0.009,0c-1.16-0.021-2.12-0.041-2.993-0.06 c-2.02-0.044-3.57-0.077-6.053-0.077c-0.834,0-3.57,0.037-4.769,0.095c-1.264,0.062-2.655-0.08-3.37-0.171 c-0.136-0.018-0.259-0.09-0.34-0.201c-0.081-0.11-0.113-0.25-0.089-0.386c0.139-0.749,0.291-1.557,0.443-2.364 c0.125-0.665,0.251-1.329,0.368-1.961c-0.39-0.001-0.739-0.006-1.088-0.027c-0.144-0.009-0.276-0.08-0.365-0.193 c-0.088-0.114-0.122-0.262-0.094-0.402c0.254-1.282,0.576-3.119,0.671-4.589c0.019-0.276,0.285-0.478,0.531-0.467 c0.275,0.018,0.484,0.256,0.467,0.531c-0.085,1.313-0.342,2.895-0.577,4.146c0.27,0.006,0.557,0.003,0.881-0.007 c0.248-0.006,0.453,0.122,0.568,0.324c0.116,0.207,0.075,0.409,0.062,0.477c-0.137,0.739-0.289,1.547-0.441,2.354 c-0.117,0.62-0.234,1.241-0.345,1.835c0.986,0.104,1.918,0.139,2.669,0.104c1.213-0.06,3.976-0.097,4.817-0.097 c2.491,0,4.048,0.033,6.074,0.077c0.872,0.019,1.831,0.039,2.989,0.06c0.276,0.005,0.496,0.232,0.491,0.509 C37.028,16.889,36.805,17.106,36.533,17.106z"/><path fill="#010101" d="M31.667,16.962c-0.036,0-0.072-0.004-0.109-0.012c-0.27-0.061-0.438-0.328-0.379-0.598 c0.149-0.666,0.37-1.405,0.584-2.121c0.209-0.698,0.426-1.421,0.566-2.053c0.012-0.05,0.03-0.136,0.027-0.164 c-0.009,0.004-0.125-0.028-0.327-0.028c-0.046,0-0.098,0.002-0.153,0.006c-0.886,0.069-1.758,0.048-2.603,0.029 c-0.821-0.019-1.671-0.037-2.511,0.026c-0.053,0.004-0.187,0.014-0.224,0.034c-0.015,0.021-0.051,0.139-0.066,0.188 c-0.455,1.461-0.842,2.791-1.262,4.262c-0.075,0.265-0.354,0.423-0.617,0.344c-0.266-0.075-0.42-0.353-0.344-0.617 c0.422-1.48,0.811-2.816,1.268-4.285c0.054-0.173,0.144-0.462,0.389-0.665c0.267-0.22,0.589-0.243,0.782-0.258 c0.888-0.068,1.761-0.049,2.607-0.029c0.818,0.018,1.665,0.038,2.504-0.026c1.173-0.081,1.46,0.513,1.526,0.776 c0.062,0.244,0.015,0.464-0.021,0.624c-0.149,0.668-0.37,1.407-0.584,2.123c-0.209,0.698-0.426,1.421-0.566,2.053 C32.103,16.804,31.897,16.962,31.667,16.962z"/><path fill="#010101" d="M12.767,12.003c-2.026,0-3.857-0.029-4.192-0.124c-0.266-0.075-0.42-0.352-0.345-0.618 c0.075-0.266,0.35-0.42,0.618-0.345c0.652,0.145,8.415,0.08,9.869,0.017c0.312-0.049,0.509,0.202,0.521,0.477 c0.013,0.276-0.201,0.51-0.477,0.521C18.225,11.955,15.339,12.003,12.767,12.003z"/><path fill="#010101" d="M7.335,29.747c-0.322,0-0.604-0.007-0.829-0.025c-0.143-0.011-0.272-0.083-0.358-0.196 s-0.119-0.258-0.092-0.397c0.2-1.024,0.56-2.088,0.906-3.116c0.282-0.835,0.573-1.693,0.77-2.514 c-0.298,0.013-0.587,0.026-0.877,0.04c-0.45,0.021-0.9,0.043-1.382,0.06c-0.275,0.004-0.508-0.207-0.518-0.482 c-0.009-0.276,0.207-0.508,0.482-0.518c0.479-0.017,0.924-0.037,1.37-0.059c0.45-0.021,0.9-0.043,1.382-0.06 c0.227-0.008,0.383,0.062,0.503,0.202c0.121,0.14,0.164,0.317,0.126,0.526c-0.202,1.032-0.562,2.096-0.908,3.124 c-0.271,0.802-0.55,1.625-0.745,2.414c0.586,0.007,1.396-0.021,2.174-0.046c1.15-0.037,2.235-0.074,2.865-0.022 c0.275,0.021,0.48,0.263,0.458,0.538c-0.021,0.275-0.27,0.487-0.538,0.458c-0.575-0.047-1.682-0.01-2.752,0.025 C8.632,29.724,7.918,29.747,7.335,29.747z"/><path fill="#010101" d="M10.005,26.58c-0.287,0-0.615-0.012-0.949-0.023c-0.535-0.019-1.089-0.037-1.48-0.008 c-0.271,0.014-0.517-0.183-0.538-0.458c-0.022-0.275,0.183-0.517,0.458-0.538c0.442-0.037,1.029-0.017,1.597,0.005 c0.43,0.015,0.849,0.033,1.173,0.018c0.347-0.013,0.767-0.009,1.179-0.003c0.497,0.008,1.25,0.018,1.423-0.039 c0.243-0.129,0.532-0.035,0.663,0.208c0.132,0.243,0.027,0.553-0.216,0.685c-0.281,0.153-0.766,0.161-1.883,0.146 c-0.396-0.006-0.798-0.013-1.126,0.003C10.211,26.578,10.111,26.58,10.005,26.58z"/></svg>