<svg xmlns="http://www.w3.org/2000/svg"  viewBox="0 0 64 64" width="150px" height="150px" baseProfile="basic"><radialGradient id="fKdz7XJ-8ie3N0W4dMW7Ja" cx="32.5" cy="-583.39" r="30.516" gradientTransform="matrix(1 0 0 -1 0 -551.89)" gradientUnits="userSpaceOnUse"><stop offset="0" stop-color="#afeeff"/><stop offset=".193" stop-color="#bbf1ff"/><stop offset=".703" stop-color="#d7f8ff"/><stop offset="1" stop-color="#e1faff"/></radialGradient><path fill="url(#fKdz7XJ-8ie3N0W4dMW7Ja)" d="M59,20h1.5c2.168,0,3.892-1.998,3.422-4.243C63.58,14.122,62.056,13,60.385,13H53 c-1.105,0-2-0.895-2-2s0.895-2,2-2h3.385c1.67,0,3.195-1.122,3.537-2.757C60.392,3.998,58.668,2,56.5,2H34.006H32.5h-24 C6.575,2,5,3.575,5,5.5S6.575,9,8.5,9H10c1.105,0,2,0.895,2,2s-0.895,2-2,2H4.615c-1.67,0-3.195,1.122-3.537,2.757 C0.608,18.002,2.332,20,4.5,20H18v12H4.615c-1.67,0-3.195,1.122-3.537,2.757C0.608,37.002,2.332,39,4.5,39H5c1.105,0,2,0.895,2,2 s-0.895,2-2,2H4.5c-2.168,0-3.892,1.998-3.422,4.243C1.42,48.878,2.945,50,4.615,50H10c1.105,0,2,0.895,2,2s-0.895,2-2,2H8.615 c-1.67,0-3.195,1.122-3.537,2.757C4.608,59.002,6.332,61,8.5,61h22.494H32.5h23c1.925,0,3.5-1.575,3.5-3.5S57.425,54,55.5,54H55 c-1.105,0-2-0.895-2-2s0.895-2,2-2h4.385c1.67,0,3.195-1.122,3.537-2.757C63.392,44.998,61.668,43,59.5,43H47V31h12.385 c1.67,0,3.195-1.122,3.537-2.757C63.392,25.998,61.668,24,59.5,24H59c-1.105,0-2-0.895-2-2S57.895,20,59,20z"/><linearGradient id="fKdz7XJ-8ie3N0W4dMW7Jb" x1="32.001" x2="32.001" y1="86.192" y2="13.126" gradientUnits="userSpaceOnUse"><stop offset="0" stop-color="#155cdc"/><stop offset=".278" stop-color="#1e7fe3"/><stop offset=".569" stop-color="#279ae9"/><stop offset=".82" stop-color="#2eaded"/><stop offset="1" stop-color="#2fb3ee"/></linearGradient><path fill="url(#fKdz7XJ-8ie3N0W4dMW7Jb)" d="M46.84,50.41 c-2.15,2.62-6.15,5.83-12.94,6.27c-0.33,0.02-0.65,0.04-0.97,0.05c-2.08,2.68-5.3,4.27-8.71,4.27c-6.06,0-11-4.93-11-11V38.95 c-0.03-0.99,0.02-1.71,0.05-2.06c0.19-2.1,0.96-4.07,2.23-5.72c-1.51-4.32-1.13-8.25-0.88-9.77c1.11-7.34,6.52-15.28,15.8-15.62 C32.44,3.99,35.03,3,37.75,3h0.26c6.06,0.15,10.88,5.21,10.72,11.29c-0.02,0.87-0.12,5.53-0.12,11.84c0,1.22-0.2,2.42-0.59,3.56 c2.18,3.23,2.64,6.37,2.72,7.97C50.88,39.37,51.02,45.34,46.84,50.41z"/><path fill="#fff" d="M24.223,57c-3.866,0-7-3.134-7-7V38.987c-0.037-0.83,0.002-1.445,0.028-1.737 c0.193-2.166,1.357-4.021,3.032-5.162c-2.426-4.341-1.914-8.858-1.711-10.094c0.933-6.151,5.431-12.556,13.057-12.207 c0.167,0.008,0.332,0.019,0.495,0.031c1.312-1.758,3.434-2.873,5.788-2.816c3.865,0.097,6.92,3.308,6.824,7.172 c-0.001,0.05-0.124,5.06-0.124,11.952c0,1.523-0.488,2.938-1.319,4.091c2.53,2.602,3.411,5.65,3.467,7.857 c0.119,1.722,0.06,6.076-3.004,9.794c-1.654,2.008-4.752,4.475-10.112,4.822c-1.052,0.068-2.035,0.062-2.953-0.007 C29.638,55.218,27.139,57,24.223,57z M33.319,40.009L33.319,40.009L33.319,40.009z"/><linearGradient id="fKdz7XJ-8ie3N0W4dMW7Jc" x1="22.21" x2="41.794" y1="31.999" y2="31.999" gradientUnits="userSpaceOnUse"><stop offset="0" stop-color="#ffc050"/><stop offset=".004" stop-color="#ffc050"/><stop offset=".641" stop-color="#ffbe75"/><stop offset="1" stop-color="#ffbd85"/><stop offset="1" stop-color="#ffbd85"/></linearGradient><path fill="url(#fKdz7XJ-8ie3N0W4dMW7Jc)" d="M24.223,52c-1.104,0-2-0.896-2-2V38.754 c-0.029-0.609,0.003-1.007,0.008-1.059c0.096-1.065,0.983-1.856,2.081-1.819c1.069,0.048,1.911,0.928,1.911,1.998v0.829 c0.056,0.869,0.317,2.429,1.419,3.542c1.12,1.133,2.945,1.629,5.419,1.464c1.725-0.111,2.986-0.638,3.749-1.564 c1.174-1.424,0.969-3.491,0.967-3.511c-0.018-0.139-0.021-0.277-0.01-0.416c-0.003-0.057-0.046-2.899-6.052-3.932 c-2.925-0.502-5.141-1.805-6.586-3.87c-2.358-3.369-1.644-7.504-1.611-7.678c0.411-2.818,2.611-8.197,7.874-7.957 c1.816,0.087,3.218,0.63,4.303,1.448c0.023-1.433,0.044-2.259,0.045-2.279c0.027-1.104,0.953-2.007,2.049-1.949 c1.104,0.027,1.978,0.944,1.949,2.049c-0.001,0.051-0.125,5.112-0.125,12.076c0,1.064-0.834,1.942-1.897,1.997 c-1.018,0.063-1.983-0.732-2.092-1.791c-0.495-4.787-1.347-7.409-4.422-7.555c-2.98-0.112-3.73,4.565-3.738,4.613 c-0.174,1.032-0.717,5.983,4.93,6.954c8.76,1.505,9.354,6.681,9.367,7.931c0.075,0.785,0.215,3.892-1.862,6.413 c-1.494,1.812-3.707,2.826-6.577,3.013c-2.876,0.187-5.255-0.314-7.098-1.491V50C26.223,51.104,25.327,52,24.223,52z"/></svg>