<svg xmlns="http://www.w3.org/2000/svg" xmlns:xlink="http://www.w3.org/1999/xlink" viewBox="0,0,256,256" width="150px" height="150px" fill-rule="nonzero"><g fill="#138e35" fill-rule="nonzero" stroke="none" stroke-width="1" stroke-linecap="butt" stroke-linejoin="miter" stroke-miterlimit="10" stroke-dasharray="" stroke-dashoffset="0" font-family="none" font-weight="none" font-size="none" text-anchor="none" style="mix-blend-mode: normal"><g transform="scale(5.12,5.12)"><path d="M6,5c-2.20703,0 -4,1.79297 -4,4v32c0,2.20703 1.79297,4 4,4h38c2.20703,0 4,-1.79297 4,-4v-32c0,-2.20703 -1.79297,-4 -4,-4zM7,9h36c0.55469,0 1,0.44922 1,1v30c0,0.55469 -0.44531,1 -1,1h-36c-0.55078,0 -1,-0.44531 -1,-1v-30c0,-0.55078 0.44922,-1 1,-1zM8,11v28h21v-2h9v2h4v-28zM25,18c1.65625,0 3,1.34375 3,3c0,1.65625 -1.34375,3 -3,3c-1.65625,0 -3,-1.34375 -3,-3c0,-1.65625 1.34375,-3 3,-3zM17,22c1.10547,0 2,0.89453 2,2c0,1.10547 -0.89453,2 -2,2c-1.10547,0 -2,-0.89453 -2,-2c0,-1.10547 0.89453,-2 2,-2zM33,22c1.10547,0 2,0.89453 2,2c0,1.10547 -0.89453,2 -2,2c-1.10547,0 -2,-0.89453 -2,-2c0,-1.10547 0.89453,-2 2,-2zM25,27c2.125,0 3.94141,0.89063 5,1.5625v3.4375h-10v-3.4375c1.05859,-0.67187 2.875,-1.5625 5,-1.5625zM17,28.65625c0.34766,0 0.67969,0.0625 1,0.125v3.21875h-5v-1.8125c0,0 1.74219,-1.53125 4,-1.53125zM33,28.65625c2.25781,0 4,1.53125 4,1.53125v1.8125h-5v-3.21875c0.32031,-0.0625 0.65234,-0.125 1,-0.125z"></path></g></g></svg>