<svg xmlns="http://www.w3.org/2000/svg"  viewBox="0 0 64 64" width="64px" height="64px"><path fill="#72caaf" d="M56.882,43.7V19.389c0-1.276-0.684-2.453-1.791-3.086L33.764,4.115c-1.093-0.624-2.434-0.624-3.527,0	L8.909,16.303c-1.108,0.633-1.791,1.811-1.791,3.086V43.7c0,1.276,0.684,2.453,1.791,3.086l21.328,12.187	c1.093,0.624,2.434,0.624,3.527,0l21.328-12.187C56.199,46.154,56.882,44.976,56.882,43.7z"/><path fill="none" stroke="#8d6c9f" stroke-miterlimit="10" stroke-width="2" d="M56.882,43.7V19.389	c0-1.276-0.684-2.453-1.791-3.086L33.764,4.115c-1.093-0.624-2.434-0.624-3.527,0L8.909,16.303	c-1.108,0.633-1.791,1.811-1.791,3.086V43.7c0,1.276,0.684,2.453,1.791,3.086l21.328,12.187c1.093,0.624,2.434,0.624,3.527,0	l21.328-12.187C56.199,46.154,56.882,44.976,56.882,43.7z"/><circle cx="32" cy="20.881" r="6" fill="#faefde"/><circle cx="32" cy="20.881" r="6" fill="none" stroke="#8d6c9f" stroke-linecap="round" stroke-linejoin="round" stroke-miterlimit="10" stroke-width="2"/><path fill="#faefde" d="M51,26c0,12.53-8.507,22-19,22s-19-9.47-19-22c19,0,17.733,20.625,19,20.625S32,26,51,26z"/><path fill="none" stroke="#8d6c9f" stroke-linecap="round" stroke-linejoin="round" stroke-miterlimit="10" stroke-width="2" d="M36,47.529C34.71,47.838,33.372,48,32,48c-10.493,0-19-9.47-19-22c19,0,17.733,20.625,19,20.625S32,26,51,26"/><path fill="#8d6c9f" d="M51.686,31.176c-0.05,0-0.101-0.004-0.152-0.012l-1.977-0.301 c-0.546-0.083-0.921-0.593-0.838-1.139c0.083-0.547,0.595-0.921,1.139-0.838l1.977,0.301c0.546,0.083,0.921,0.593,0.838,1.139 C52.598,30.821,52.172,31.176,51.686,31.176z"/><path fill="#8d6c9f" d="M50.362,36.252c-0.116,0-0.234-0.02-0.349-0.062l-1.874-0.697 c-0.518-0.192-0.781-0.769-0.588-1.286c0.192-0.518,0.77-0.782,1.286-0.589l1.874,0.697c0.518,0.192,0.781,0.769,0.588,1.286 C51.15,36.003,50.768,36.252,50.362,36.252z"/><path fill="#8d6c9f" d="M47.991,40.949c-0.188,0-0.379-0.053-0.548-0.164l-1.671-1.098 c-0.462-0.304-0.59-0.923-0.287-1.385c0.303-0.462,0.924-0.591,1.385-0.287l1.671,1.098c0.462,0.304,0.59,0.923,0.287,1.385 C48.636,40.791,48.316,40.949,47.991,40.949z"/><path fill="#8d6c9f" d="M44.581,44.979c-0.271,0-0.54-0.109-0.737-0.324l-1.352-1.474 c-0.374-0.406-0.346-1.039,0.061-1.413c0.409-0.373,1.041-0.345,1.413,0.062l1.352,1.474c0.374,0.406,0.346,1.039-0.061,1.413 C45.064,44.893,44.822,44.979,44.581,44.979z"/><path fill="#8d6c9f" d="M40.228,48.009c-0.365,0-0.717-0.2-0.893-0.548l-0.904-1.784c-0.25-0.493-0.053-1.095,0.44-1.344 c0.493-0.252,1.095-0.053,1.344,0.439l0.904,1.784c0.25,0.493,0.053,1.095-0.44,1.344C40.534,47.975,40.38,48.009,40.228,48.009z"/></svg>